<svg width="12" height="13" viewBox="0 0 12 13" fill="none" xmlns="http://www.w3.org/2000/svg">
<path d="M10.5375 7.5875L4.9125 1.9625C3.975 0.9875 2.4375 0.9875 1.4625 1.925C0.487497 2.8625 0.487497 4.4375 1.4625 5.375L1.5 5.4125L2.55 6.5L3.075 5.975L1.9875 4.8875C1.35 4.25 1.35 3.1625 1.9875 2.525C2.625 1.8875 3.7125 1.85 4.35 2.4875C4.35 2.4875 4.35 2.4875 4.3875 2.525L9.975 8.1125C10.65 8.75 10.65 9.8375 10.0125 10.475C9.375 11.15 8.2875 11.15 7.65 10.5125C7.65 10.5125 7.65 10.5125 7.6125 10.475L4.8375 7.7C4.4625 7.325 4.5 6.725 4.8375 6.3875C5.2125 6.05 5.775 6.05 6.15 6.3875L7.6875 7.925L8.2125 7.4L6.6375 5.825C5.9625 5.1875 4.9125 5.225 4.275 5.9C3.675 6.5375 3.675 7.55 4.275 8.225L7.0875 11.0375C8.025 12.0125 9.5625 12.0125 10.5375 11.075C11.5125 10.1375 11.5125 8.5625 10.5375 7.5875C10.5375 7.625 10.5375 7.5875 10.5375 7.5875Z" fill="#62727B"/>
</svg>
