<svg width="12" height="12" viewBox="0 0 12 12" fill="none" xmlns="http://www.w3.org/2000/svg">
<path d="M9.75 1.5H8.25V0.75H7.5V1.5H4.5V0.75H3.75V1.5H2.25C2.05116 1.50025 1.86054 1.57935 1.71994 1.71994C1.57935 1.86054 1.50025 2.05116 1.5 2.25V9.75C1.50025 9.94884 1.57935 10.1395 1.71994 10.2801C1.86054 10.4207 2.05116 10.4998 2.25 10.5H9.75C9.94884 10.4998 10.1395 10.4207 10.2801 10.2801C10.4207 10.1395 10.4998 9.94884 10.5 9.75V2.25C10.4998 2.05116 10.4207 1.86054 10.2801 1.71994C10.1395 1.57935 9.94884 1.50025 9.75 1.5ZM2.25 2.25H3.75V3H4.5V2.25H7.5V3H8.25V2.25H9.75V3.75H2.25V2.25ZM2.25 4.5H4.125V6.75H2.25V4.5ZM7.125 9.75H4.875V7.5H7.125V9.75ZM7.125 6.75H4.875V4.5H7.125V6.75ZM7.875 9.75V7.5H9.75L9.75045 9.75H7.875Z" fill="black"/>
</svg>
