<svg width="16" height="16" viewBox="0 0 12 12" fill="none" xmlns="http://www.w3.org/2000/svg">
<path d="M9.75 5.25H9V6H9.75C10.0483 6.00033 10.3342 6.11896 10.5451 6.32987C10.756 6.54077 10.8747 6.82673 10.875 7.125V8.625H11.625V7.125C11.6244 6.6279 11.4267 6.15132 11.0752 5.79981C10.7237 5.4483 10.2471 5.25058 9.75 5.25Z" fill="black"/>
<path d="M9 1.5C9.22251 1.5 9.44001 1.56598 9.62502 1.6896C9.81002 1.81321 9.95422 1.98891 10.0394 2.19448C10.1245 2.40005 10.1468 2.62625 10.1034 2.84448C10.06 3.06271 9.95283 3.26316 9.7955 3.4205C9.63816 3.57783 9.43771 3.68498 9.21948 3.72838C9.00125 3.77179 8.77505 3.74951 8.56948 3.66436C8.36392 3.57922 8.18821 3.43502 8.0646 3.25002C7.94098 3.06501 7.875 2.8475 7.875 2.625C7.875 2.32663 7.99353 2.04048 8.20451 1.8295C8.41548 1.61853 8.70163 1.5 9 1.5ZM9 0.75C8.62916 0.75 8.26665 0.859967 7.95831 1.06599C7.64996 1.27202 7.40964 1.56486 7.26773 1.90747C7.12581 2.25008 7.08868 2.62708 7.16103 2.99079C7.23338 3.35451 7.41195 3.6886 7.67418 3.95083C7.9364 4.21305 8.27049 4.39163 8.63421 4.46397C8.99792 4.53632 9.37492 4.49919 9.71753 4.35727C10.0601 4.21536 10.353 3.97504 10.559 3.66669C10.765 3.35835 10.875 2.99584 10.875 2.625C10.875 2.12772 10.6775 1.65081 10.3258 1.29917C9.9742 0.947544 9.49728 0.75 9 0.75Z" fill="black"/>
<path d="M8.625 11.25H7.875V10.5C7.87467 10.2017 7.75604 9.91577 7.54513 9.70487C7.33423 9.49396 7.04827 9.37533 6.75 9.375H5.25C4.95173 9.37533 4.66577 9.49396 4.45487 9.70487C4.24396 9.91577 4.12533 10.2017 4.125 10.5V11.25H3.375V10.5C3.37559 10.0029 3.57332 9.52633 3.92482 9.17482C4.27633 8.82332 4.7529 8.62559 5.25 8.625H6.75C7.2471 8.62559 7.72367 8.82332 8.07518 9.17482C8.42668 9.52633 8.62441 10.0029 8.625 10.5V11.25Z" fill="black"/>
<path d="M6 4.875C6.22251 4.875 6.44001 4.94098 6.62502 5.0646C6.81002 5.18821 6.95422 5.36391 7.03937 5.56948C7.12451 5.77505 7.14679 6.00125 7.10338 6.21948C7.05998 6.43771 6.95283 6.63816 6.7955 6.7955C6.63816 6.95283 6.43771 7.05998 6.21948 7.10338C6.00125 7.14679 5.77505 7.12451 5.56948 7.03936C5.36392 6.95422 5.18821 6.81002 5.0646 6.62502C4.94098 6.44001 4.875 6.2225 4.875 6C4.875 5.70163 4.99353 5.41548 5.20451 5.2045C5.41548 4.99353 5.70163 4.875 6 4.875ZM6 4.125C5.62916 4.125 5.26665 4.23497 4.95831 4.44099C4.64996 4.64702 4.40964 4.93986 4.26773 5.28247C4.12581 5.62508 4.08868 6.00208 4.16103 6.36579C4.23338 6.72951 4.41195 7.0636 4.67418 7.32583C4.9364 7.58805 5.27049 7.76663 5.63421 7.83897C5.99792 7.91132 6.37492 7.87419 6.71753 7.73227C7.06014 7.59036 7.35298 7.35004 7.55901 7.04169C7.76503 6.73335 7.875 6.37084 7.875 6C7.875 5.50272 7.67746 5.02581 7.32583 4.67417C6.9742 4.32254 6.49728 4.125 6 4.125Z" fill="black"/>
<path d="M3 5.25H2.25C1.7529 5.25059 1.27633 5.44832 0.924821 5.79982C0.573318 6.15133 0.375586 6.6279 0.375 7.125V8.625H1.125V7.125C1.12533 6.82673 1.24396 6.54077 1.45487 6.32987C1.66577 6.11896 1.95173 6.00033 2.25 6H3V5.25Z" fill="black"/>
<path d="M3 1.5C3.22251 1.5 3.44001 1.56598 3.62502 1.6896C3.81002 1.81321 3.95422 1.98891 4.03937 2.19448C4.12451 2.40005 4.14679 2.62625 4.10338 2.84448C4.05998 3.06271 3.95283 3.26316 3.7955 3.4205C3.63816 3.57783 3.43771 3.68498 3.21948 3.72838C3.00125 3.77179 2.77505 3.74951 2.56948 3.66436C2.36392 3.57922 2.18821 3.43502 2.0646 3.25002C1.94098 3.06501 1.875 2.8475 1.875 2.625C1.875 2.32663 1.99353 2.04048 2.20451 1.8295C2.41548 1.61853 2.70163 1.5 3 1.5ZM3 0.75C2.62916 0.75 2.26665 0.859967 1.95831 1.06599C1.64996 1.27202 1.40964 1.56486 1.26773 1.90747C1.12581 2.25008 1.08868 2.62708 1.16103 2.99079C1.23338 3.35451 1.41195 3.6886 1.67418 3.95083C1.9364 4.21305 2.27049 4.39163 2.63421 4.46397C2.99792 4.53632 3.37492 4.49919 3.71753 4.35727C4.06014 4.21536 4.35298 3.97504 4.55901 3.66669C4.76503 3.35835 4.875 2.99584 4.875 2.625C4.875 2.12772 4.67746 1.65081 4.32583 1.29917C3.9742 0.947544 3.49728 0.75 3 0.75Z" fill="black"/>
</svg>
