<svg width="12" height="13" viewBox="0 0 12 13" fill="none" xmlns="http://www.w3.org/2000/svg">
<path d="M6.6525 11.75L6 11.375L7.5 8.75H9.75C9.94891 8.75 10.1397 8.67098 10.2803 8.53033C10.421 8.38968 10.5 8.19891 10.5 8V3.5C10.5 3.30109 10.421 3.11032 10.2803 2.96967C10.1397 2.82902 9.94891 2.75 9.75 2.75H2.25C2.05109 2.75 1.86032 2.82902 1.71967 2.96967C1.57902 3.11032 1.5 3.30109 1.5 3.5V8C1.5 8.19891 1.57902 8.38968 1.71967 8.53033C1.86032 8.67098 2.05109 8.75 2.25 8.75H5.625V9.5H2.25C1.85218 9.5 1.47064 9.34196 1.18934 9.06066C0.908035 8.77936 0.75 8.39782 0.75 8V3.5C0.75 3.10218 0.908035 2.72064 1.18934 2.43934C1.47064 2.15804 1.85218 2 2.25 2H9.75C10.1478 2 10.5294 2.15804 10.8107 2.43934C11.092 2.72064 11.25 3.10218 11.25 3.5V8C11.25 8.39782 11.092 8.77936 10.8107 9.06066C10.5294 9.34196 10.1478 9.5 9.75 9.5H7.935L6.6525 11.75Z" fill="#62727B"/>
<path d="M9 4.25H3V5H9V4.25Z" fill="#62727B"/>
<path d="M6.75 6.5H3V7.25H6.75V6.5Z" fill="#62727B"/>
</svg>
