<svg width="16" height="16" viewBox="0 0 12 12" fill="none" xmlns="http://www.w3.org/2000/svg">
<path d="M11.1401 7.23487L10.0151 6.10987C9.98032 6.07504 9.93899 6.0474 9.8935 6.02855C9.84801 6.00969 9.79924 5.99998 9.75 5.99998C9.70076 5.99998 9.65199 6.00969 9.6065 6.02855C9.56101 6.0474 9.51968 6.07504 9.48487 6.10987L6 9.59471V11.25H7.65529L11.1401 7.76512C11.175 7.73032 11.2026 7.68899 11.2215 7.6435C11.2403 7.598 11.25 7.54924 11.25 7.5C11.25 7.45075 11.2403 7.40199 11.2215 7.3565C11.2026 7.31101 11.175 7.26968 11.1401 7.23487ZM7.34471 10.5H6.75V9.90529L8.625 8.03029L9.21971 8.625L7.34471 10.5ZM9.75 8.09471L9.15529 7.5L9.75 6.90529L10.3447 7.5L9.75 8.09471Z" fill="black"/>
<path d="M6.75 5.25V6.75H7.5V5.25H6.75Z" fill="black"/>
<path d="M5.25 4.5V6.75H6V4.5H5.25Z" fill="black"/>
<path d="M3.75 3L3.75 6.75H4.5V3H3.75Z" fill="black"/>
<path d="M4.5 11.25H2.25C2.05115 11.2498 1.86051 11.1707 1.7199 11.0301C1.57929 10.8895 1.50021 10.6988 1.5 10.5V1.5C1.50021 1.30115 1.57929 1.11051 1.7199 0.9699C1.86051 0.829293 2.05115 0.750208 2.25 0.75H8.25C8.44885 0.750208 8.63949 0.829293 8.7801 0.9699C8.92071 1.11051 8.99979 1.30115 9 1.5V5.25H8.25V1.5H2.25V10.5H4.5V11.25Z" fill="black"/>
</svg>
