<svg width="12" height="12" viewBox="0 0 12 12" fill="none" xmlns="http://www.w3.org/2000/svg">
<path d="M10.125 6.285C10.125 6.19125 10.125 6.0975 10.125 6C10.125 5.9025 10.125 5.80875 10.125 5.71125L10.845 5.08125C10.9777 4.96427 11.0648 4.80414 11.0909 4.62915C11.1169 4.45417 11.0803 4.2756 10.9875 4.125L10.1025 2.625C10.0367 2.5111 9.94215 2.41649 9.82829 2.35067C9.71442 2.28485 9.58524 2.25013 9.45372 2.25C9.37222 2.24938 9.29115 2.26204 9.21372 2.2875L8.30247 2.595C8.14514 2.49045 7.98103 2.3965 7.81122 2.31375L7.61997 1.36875C7.58568 1.1961 7.49176 1.04102 7.35464 0.930638C7.21753 0.820261 7.04596 0.761627 6.86997 0.765H5.11497C4.93898 0.761627 4.76742 0.820261 4.6303 0.930638C4.49319 1.04102 4.39926 1.1961 4.36497 1.36875L4.17372 2.31375C4.0027 2.39648 3.83734 2.49043 3.67872 2.595L2.78622 2.2725C2.70796 2.25211 2.62691 2.24451 2.54622 2.25C2.4147 2.25013 2.28553 2.28485 2.17166 2.35067C2.05779 2.41649 1.96323 2.5111 1.89747 2.625L1.01247 4.125C0.924943 4.27537 0.892417 4.4515 0.920466 4.62321C0.948515 4.79493 1.03539 4.95155 1.16622 5.06625L1.87497 5.715C1.87497 5.80875 1.87497 5.9025 1.87497 6C1.87497 6.0975 1.87497 6.19125 1.87497 6.28875L1.16622 6.91875C1.0317 7.03425 0.942443 7.19367 0.914297 7.36873C0.886151 7.54379 0.920934 7.72315 1.01247 7.875L1.89747 9.375C1.96323 9.4889 2.05779 9.58351 2.17166 9.64933C2.28553 9.71515 2.4147 9.74987 2.54622 9.75C2.62773 9.75062 2.70879 9.73796 2.78622 9.7125L3.69747 9.405C3.8548 9.50955 4.01891 9.60351 4.18872 9.68625L4.37997 10.6313C4.41426 10.8039 4.50819 10.959 4.6453 11.0694C4.78242 11.1797 4.95398 11.2384 5.12997 11.235H6.89997C7.07596 11.2384 7.24753 11.1797 7.38464 11.0694C7.52176 10.959 7.61568 10.8039 7.64997 10.6313L7.84122 9.68625C8.01225 9.60353 8.17761 9.50957 8.33622 9.405L9.24372 9.7125C9.32115 9.73796 9.40222 9.75062 9.48372 9.75C9.61524 9.74987 9.74442 9.71515 9.85829 9.64933C9.97215 9.58351 10.0667 9.4889 10.1325 9.375L10.9875 7.875C11.075 7.72463 11.1075 7.5485 11.0795 7.37679C11.0514 7.20507 10.9646 7.04845 10.8337 6.93375L10.125 6.285ZM9.45372 9L8.16747 8.565C7.86637 8.82004 7.52225 9.01941 7.15122 9.15375L6.88497 10.5H5.11497L4.84872 9.16875C4.48063 9.03059 4.13837 8.83157 3.83622 8.58L2.54622 9L1.66122 7.5L2.68122 6.6C2.61188 6.21182 2.61188 5.81443 2.68122 5.42625L1.66122 4.5L2.54622 3L3.83247 3.435C4.13357 3.17996 4.4777 2.9806 4.84872 2.84625L5.11497 1.5H6.88497L7.15122 2.83125C7.51931 2.96941 7.86158 3.16843 8.16372 3.42L9.45372 3L10.3387 4.5L9.31872 5.4C9.38806 5.78818 9.38806 6.18557 9.31872 6.57375L10.3387 7.5L9.45372 9Z" fill="#102027"/>
<path d="M6 8.25C5.55499 8.25 5.11998 8.11804 4.74997 7.87081C4.37996 7.62357 4.09157 7.27217 3.92127 6.86104C3.75097 6.4499 3.70642 5.9975 3.79323 5.56105C3.88005 5.12459 4.09434 4.72368 4.40901 4.40901C4.72368 4.09434 5.12459 3.88005 5.56105 3.79323C5.9975 3.70642 6.4499 3.75097 6.86104 3.92127C7.27217 4.09157 7.62357 4.37996 7.87081 4.74997C8.11804 5.11998 8.25 5.55499 8.25 6C8.25301 6.29631 8.19687 6.59024 8.08486 6.86459C7.97285 7.13893 7.80723 7.38816 7.5977 7.5977C7.38816 7.80723 7.13893 7.97285 6.86459 8.08486C6.59024 8.19687 6.29631 8.25301 6 8.25ZM6 4.5C5.80176 4.49538 5.60463 4.53102 5.42056 4.60477C5.23648 4.67852 5.06928 4.78884 4.92906 4.92906C4.78884 5.06928 4.67852 5.23648 4.60477 5.42056C4.53102 5.60463 4.49538 5.80176 4.5 6C4.49538 6.19825 4.53102 6.39537 4.60477 6.57944C4.67852 6.76352 4.78884 6.93073 4.92906 7.07094C5.06928 7.21116 5.23648 7.32148 5.42056 7.39523C5.60463 7.46898 5.80176 7.50462 6 7.5C6.19825 7.50462 6.39537 7.46898 6.57944 7.39523C6.76352 7.32148 6.93073 7.21116 7.07094 7.07094C7.21116 6.93073 7.32148 6.76352 7.39523 6.57944C7.46898 6.39537 7.50462 6.19825 7.5 6C7.50462 5.80176 7.46898 5.60463 7.39523 5.42056C7.32148 5.23648 7.21116 5.06928 7.07094 4.92906C6.93073 4.78884 6.76352 4.67852 6.57944 4.60477C6.39537 4.53102 6.19825 4.49538 6 4.5Z" fill="#102027"/>
</svg>
