<svg width="16" height="16" viewBox="0 0 12 12" fill="none" xmlns="http://www.w3.org/2000/svg">
<path d="M6 3C5.62916 3 5.26665 3.10997 4.95831 3.31599C4.64996 3.52202 4.40964 3.81486 4.26773 4.15747C4.12581 4.50008 4.08868 4.87708 4.16103 5.24079C4.23338 5.60451 4.41195 5.9386 4.67418 6.20083C4.9364 6.46305 5.27049 6.64163 5.63421 6.71397C5.99792 6.78632 6.37492 6.74919 6.71753 6.60727C7.06014 6.46536 7.35298 6.22504 7.55901 5.91669C7.76503 5.60835 7.875 5.24584 7.875 4.875C7.875 4.37772 7.67746 3.90081 7.32583 3.54917C6.9742 3.19754 6.49728 3 6 3ZM6 6C5.7775 6 5.55999 5.93402 5.37498 5.8104C5.18998 5.68679 5.04579 5.51109 4.96064 5.30552C4.87549 5.09995 4.85321 4.87375 4.89662 4.65552C4.94003 4.43729 5.04717 4.23684 5.20451 4.0795C5.36184 3.92217 5.5623 3.81502 5.78052 3.77162C5.99875 3.72821 6.22495 3.75049 6.43052 3.83564C6.63609 3.92078 6.81179 4.06498 6.9354 4.24998C7.05902 4.43499 7.125 4.6525 7.125 4.875C7.12466 5.17326 7.00603 5.45922 6.79512 5.67012C6.58422 5.88103 6.29827 5.99966 6 6Z" fill="black"/>
<path d="M6 0.75C4.96165 0.75 3.94662 1.05791 3.08326 1.63478C2.2199 2.21166 1.54699 3.0316 1.14963 3.99091C0.752275 4.95022 0.648307 6.00582 0.85088 7.02422C1.05345 8.04262 1.55347 8.97808 2.28769 9.71231C3.02192 10.4465 3.95738 10.9466 4.97578 11.1491C5.99418 11.3517 7.04978 11.2477 8.00909 10.8504C8.9684 10.453 9.78834 9.7801 10.3652 8.91674C10.9421 8.05339 11.25 7.03835 11.25 6C11.2484 4.60809 10.6948 3.27365 9.71058 2.28942C8.72635 1.3052 7.39191 0.751568 6 0.75ZM3.75 9.89119V9.375C3.75033 9.07673 3.86896 8.79077 4.07987 8.57987C4.29078 8.36896 4.57673 8.25033 4.875 8.25H7.125C7.42327 8.25033 7.70923 8.36896 7.92014 8.57987C8.13104 8.79077 8.24967 9.07673 8.25 9.375V9.89119C7.56719 10.2899 6.7907 10.5 6 10.5C5.20931 10.5 4.43281 10.2899 3.75 9.89119ZM8.99719 9.34718C8.98973 8.85527 8.78931 8.38598 8.43911 8.04046C8.0889 7.69493 7.61697 7.50084 7.125 7.5H4.875C4.38304 7.50084 3.9111 7.69493 3.5609 8.04046C3.2107 8.38598 3.01027 8.85527 3.00281 9.34718C2.32278 8.73996 1.84321 7.9405 1.62763 7.05467C1.41204 6.16885 1.4706 5.23843 1.79555 4.38662C2.12051 3.53482 2.69652 2.8018 3.44733 2.28464C4.19814 1.76747 5.08832 1.49056 6 1.49056C6.91169 1.49056 7.80187 1.76747 8.55268 2.28464C9.30348 2.8018 9.8795 3.53482 10.2045 4.38662C10.5294 5.23843 10.588 6.16885 10.3724 7.05467C10.1568 7.9405 9.67723 8.73996 8.99719 9.34718Z" fill="#102027"/>
</svg>
